STARTFONT 2.1
COMMENT Exported by Fony v1.4.7
FONT Fixed
SIZE 18 100 100
FONTBOUNDINGBOX 12 17 0 -4
STARTPROPERTIES 6
COPYRIGHT "Public domain font.  Share and enjoy."
RESOLUTION_X 100
RESOLUTION_Y 100
FONT_ASCENT 14
FONT_DESCENT 4
DEFAULT_CHAR 0
ENDPROPERTIES
CHARS 256
STARTCHAR 000
ENCODING 0
SWIDTH 648 0
DWIDTH 9 0
BBX 7 10 1 0
BITMAP
DA
02
80
82
02
80
82
02
80
B6
ENDCHAR
STARTCHAR 001
ENCODING 1
SWIDTH 72 0
DWIDTH 1 0
BBX 0 0 0 0
BITMAP
ENDCHAR
STARTCHAR 002
ENCODING 2
SWIDTH 72 0
DWIDTH 1 0
BBX 0 0 0 0
BITMAP
ENDCHAR
STARTCHAR 003
ENCODING 3
SWIDTH 72 0
DWIDTH 1 0
BBX 0 0 0 0
BITMAP
ENDCHAR
STARTCHAR 004
ENCODING 4
SWIDTH 72 0
DWIDTH 1 0
BBX 0 0 0 0
BITMAP
ENDCHAR
STARTCHAR 005
ENCODING 5
SWIDTH 72 0
DWIDTH 1 0
BBX 0 0 0 0
BITMAP
ENDCHAR
STARTCHAR 006
ENCODING 6
SWIDTH 72 0
DWIDTH 1 0
BBX 0 0 0 0
BITMAP
ENDCHAR
STARTCHAR 007
ENCODING 7
SWIDTH 72 0
DWIDTH 1 0
BBX 0 0 0 0
BITMAP
ENDCHAR
STARTCHAR 008
ENCODING 8
SWIDTH 72 0
DWIDTH 1 0
BBX 0 0 0 0
BITMAP
ENDCHAR
STARTCHAR 009
ENCODING 9
SWIDTH 72 0
DWIDTH 1 0
BBX 0 0 0 0
BITMAP
ENDCHAR
STARTCHAR 010
ENCODING 10
SWIDTH 72 0
DWIDTH 1 0
BBX 0 0 0 0
BITMAP
ENDCHAR
STARTCHAR 011
ENCODING 11
SWIDTH 72 0
DWIDTH 1 0
BBX 0 0 0 0
BITMAP
ENDCHAR
STARTCHAR 012
ENCODING 12
SWIDTH 72 0
DWIDTH 1 0
BBX 0 0 0 0
BITMAP
ENDCHAR
STARTCHAR 013
ENCODING 13
SWIDTH 72 0
DWIDTH 1 0
BBX 0 0 0 0
BITMAP
ENDCHAR
STARTCHAR 014
ENCODING 14
SWIDTH 72 0
DWIDTH 1 0
BBX 0 0 0 0
BITMAP
ENDCHAR
STARTCHAR 015
ENCODING 15
SWIDTH 72 0
DWIDTH 1 0
BBX 0 0 0 0
BITMAP
ENDCHAR
STARTCHAR 016
ENCODING 16
SWIDTH 72 0
DWIDTH 1 0
BBX 0 0 0 0
BITMAP
ENDCHAR
STARTCHAR 017
ENCODING 17
SWIDTH 72 0
DWIDTH 1 0
BBX 0 0 0 0
BITMAP
ENDCHAR
STARTCHAR 018
ENCODING 18
SWIDTH 72 0
DWIDTH 1 0
BBX 0 0 0 0
BITMAP
ENDCHAR
STARTCHAR 019
ENCODING 19
SWIDTH 72 0
DWIDTH 1 0
BBX 0 0 0 0
BITMAP
ENDCHAR
STARTCHAR 020
ENCODING 20
SWIDTH 72 0
DWIDTH 1 0
BBX 0 0 0 0
BITMAP
ENDCHAR
STARTCHAR 021
ENCODING 21
SWIDTH 72 0
DWIDTH 1 0
BBX 0 0 0 0
BITMAP
ENDCHAR
STARTCHAR 022
ENCODING 22
SWIDTH 72 0
DWIDTH 1 0
BBX 0 0 0 0
BITMAP
ENDCHAR
STARTCHAR 023
ENCODING 23
SWIDTH 72 0
DWIDTH 1 0
BBX 0 0 0 0
BITMAP
ENDCHAR
STARTCHAR 024
ENCODING 24
SWIDTH 72 0
DWIDTH 1 0
BBX 0 0 0 0
BITMAP
ENDCHAR
STARTCHAR 025
ENCODING 25
SWIDTH 72 0
DWIDTH 1 0
BBX 0 0 0 0
BITMAP
ENDCHAR
STARTCHAR 026
ENCODING 26
SWIDTH 72 0
DWIDTH 1 0
BBX 0 0 0 0
BITMAP
ENDCHAR
STARTCHAR 027
ENCODING 27
SWIDTH 72 0
DWIDTH 1 0
BBX 0 0 0 0
BITMAP
ENDCHAR
STARTCHAR 028
ENCODING 28
SWIDTH 72 0
DWIDTH 1 0
BBX 0 0 0 0
BITMAP
ENDCHAR
STARTCHAR 029
ENCODING 29
SWIDTH 72 0
DWIDTH 1 0
BBX 0 0 0 0
BITMAP
ENDCHAR
STARTCHAR 030
ENCODING 30
SWIDTH 72 0
DWIDTH 1 0
BBX 0 0 0 0
BITMAP
ENDCHAR
STARTCHAR 031
ENCODING 31
SWIDTH 72 0
DWIDTH 1 0
BBX 0 0 0 0
BITMAP
ENDCHAR
STARTCHAR 032
ENCODING 32
SWIDTH 288 0
DWIDTH 4 0
BBX 0 0 0 0
BITMAP
ENDCHAR
STARTCHAR 033
ENCODING 33
SWIDTH 288 0
DWIDTH 4 0
BBX 3 13 0 0
BITMAP
40
E0
E0
E0
E0
E0
40
40
40
00
40
E0
40
ENDCHAR
STARTCHAR 034
ENCODING 34
SWIDTH 432 0
DWIDTH 6 0
BBX 5 3 0 7
BITMAP
D8
D8
D8
ENDCHAR
STARTCHAR 035
ENCODING 35
SWIDTH 648 0
DWIDTH 9 0
BBX 8 10 0 0
BITMAP
66
66
FF
FF
66
66
FF
FF
66
66
ENDCHAR
STARTCHAR 036
ENCODING 36
SWIDTH 648 0
DWIDTH 9 0
BBX 7 13 0 0
BITMAP
10
7C
FE
FE
92
F8
7C
3E
92
FE
FE
7C
10
ENDCHAR
STARTCHAR 037
ENCODING 37
SWIDTH 792 0
DWIDTH 11 0
BBX 10 10 0 0
BITMAP
70C0
D9C0
DB80
7700
0E00
1C00
3B80
76C0
E6C0
C380
ENDCHAR
STARTCHAR 038
ENCODING 38
SWIDTH 576 0
DWIDTH 8 0
BBX 7 13 0 0
BITMAP
70
F8
F8
88
C0
E0
74
FC
9C
88
FC
FE
76
ENDCHAR
STARTCHAR 039
ENCODING 39
SWIDTH 144 0
DWIDTH 2 0
BBX 1 4 0 9
BITMAP
80
80
80
80
ENDCHAR
STARTCHAR 040
ENCODING 40
SWIDTH 288 0
DWIDTH 4 0
BBX 3 13 0 0
BITMAP
60
E0
E0
C0
80
80
80
80
80
C0
E0
E0
60
ENDCHAR
STARTCHAR 041
ENCODING 41
SWIDTH 288 0
DWIDTH 4 0
BBX 3 13 0 0
BITMAP
C0
E0
E0
60
20
20
20
20
20
60
E0
E0
C0
ENDCHAR
STARTCHAR 042
ENCODING 42
SWIDTH 648 0
DWIDTH 9 0
BBX 8 8 0 2
BITMAP
DB
FF
7E
FF
FF
7E
FF
DB
ENDCHAR
STARTCHAR 043
ENCODING 43
SWIDTH 648 0
DWIDTH 9 0
BBX 8 8 0 1
BITMAP
18
18
18
FF
FF
18
18
18
ENDCHAR
STARTCHAR 044
ENCODING 44
SWIDTH 288 0
DWIDTH 4 0
BBX 3 5 0 -3
BITMAP
60
60
60
E0
C0
ENDCHAR
STARTCHAR 045
ENCODING 45
SWIDTH 432 0
DWIDTH 6 0
BBX 5 3 0 5
BITMAP
F8
F8
F8
ENDCHAR
STARTCHAR 046
ENCODING 46
SWIDTH 144 0
DWIDTH 2 0
BBX 1 3 0 0
BITMAP
80
80
80
ENDCHAR
STARTCHAR 047
ENCODING 47
SWIDTH 360 0
DWIDTH 5 0
BBX 4 13 0 0
BITMAP
30
30
30
30
70
70
60
E0
E0
C0
C0
C0
C0
ENDCHAR
STARTCHAR 048
ENCODING 48
SWIDTH 504 0
DWIDTH 7 0
BBX 6 13 0 0
BITMAP
78
FC
FC
84
84
84
84
84
84
84
FC
FC
78
ENDCHAR
STARTCHAR 049
ENCODING 49
SWIDTH 360 0
DWIDTH 5 0
BBX 3 13 0 0
BITMAP
40
C0
C0
C0
40
40
40
40
40
40
E0
E0
E0
ENDCHAR
STARTCHAR 050
ENCODING 50
SWIDTH 504 0
DWIDTH 7 0
BBX 6 13 0 0
BITMAP
78
FC
FC
84
04
7C
FC
F8
80
80
FC
FC
FC
ENDCHAR
STARTCHAR 051
ENCODING 51
SWIDTH 504 0
DWIDTH 7 0
BBX 6 13 0 0
BITMAP
78
FC
FC
84
04
3C
38
3C
04
84
FC
FC
78
ENDCHAR
STARTCHAR 052
ENCODING 52
SWIDTH 504 0
DWIDTH 7 0
BBX 6 13 0 0
BITMAP
08
18
28
48
88
FC
FC
FC
08
08
08
08
08
ENDCHAR
STARTCHAR 053
ENCODING 53
SWIDTH 504 0
DWIDTH 7 0
BBX 6 13 0 0
BITMAP
FC
FC
FC
80
80
F8
FC
FC
04
84
FC
FC
78
ENDCHAR
STARTCHAR 054
ENCODING 54
SWIDTH 504 0
DWIDTH 7 0
BBX 6 13 0 0
BITMAP
78
FC
FC
84
80
F8
FC
FC
84
84
FC
FC
78
ENDCHAR
STARTCHAR 055
ENCODING 55
SWIDTH 504 0
DWIDTH 7 0
BBX 6 13 0 0
BITMAP
FC
FC
FC
04
0C
1C
38
30
20
20
20
20
20
ENDCHAR
STARTCHAR 056
ENCODING 56
SWIDTH 504 0
DWIDTH 7 0
BBX 6 13 0 0
BITMAP
78
FC
FC
84
84
FC
78
FC
84
84
FC
FC
78
ENDCHAR
STARTCHAR 057
ENCODING 57
SWIDTH 504 0
DWIDTH 7 0
BBX 6 13 0 0
BITMAP
78
FC
FC
84
84
FC
FC
7C
04
84
FC
FC
78
ENDCHAR
STARTCHAR 058
ENCODING 58
SWIDTH 216 0
DWIDTH 3 0
BBX 2 6 0 2
BITMAP
C0
C0
00
00
C0
C0
ENDCHAR
STARTCHAR 059
ENCODING 59
SWIDTH 288 0
DWIDTH 4 0
BBX 3 11 0 -3
BITMAP
60
60
00
00
00
00
60
60
60
E0
C0
ENDCHAR
STARTCHAR 060
ENCODING 60
SWIDTH 432 0
DWIDTH 6 0
BBX 5 8 0 1
BITMAP
18
38
70
E0
E0
70
38
18
ENDCHAR
STARTCHAR 061
ENCODING 61
SWIDTH 504 0
DWIDTH 7 0
BBX 6 6 0 2
BITMAP
FC
FC
00
00
FC
FC
ENDCHAR
STARTCHAR 062
ENCODING 62
SWIDTH 432 0
DWIDTH 6 0
BBX 5 8 0 1
BITMAP
C0
E0
70
38
38
70
E0
C0
ENDCHAR
STARTCHAR 063
ENCODING 63
SWIDTH 432 0
DWIDTH 6 0
BBX 5 10 0 0
BITMAP
F0
F8
18
38
70
60
60
00
60
60
ENDCHAR
STARTCHAR 064
ENCODING 64
SWIDTH 864 0
DWIDTH 12 0
BBX 11 10 0 0
BITMAP
3F80
7FC0
E0E0
CF60
DB60
DB60
CFC0
E000
7FE0
3FE0
ENDCHAR
STARTCHAR 065
ENCODING 65
SWIDTH 432 0
DWIDTH 6 0
BBX 5 13 0 0
BITMAP
70
F8
F8
D8
88
88
F8
F8
F8
88
88
88
88
ENDCHAR
STARTCHAR 066
ENCODING 66
SWIDTH 432 0
DWIDTH 6 0
BBX 5 13 0 0
BITMAP
F0
F8
F8
88
88
F8
F0
F8
88
88
F8
F8
F0
ENDCHAR
STARTCHAR 067
ENCODING 67
SWIDTH 432 0
DWIDTH 6 0
BBX 5 13 0 0
BITMAP
70
F8
F8
D8
88
80
80
80
88
D8
F8
F8
70
ENDCHAR
STARTCHAR 068
ENCODING 68
SWIDTH 432 0
DWIDTH 6 0
BBX 5 13 0 0
BITMAP
F0
F8
F8
88
88
88
88
88
88
88
F8
F8
F0
ENDCHAR
STARTCHAR 069
ENCODING 69
SWIDTH 432 0
DWIDTH 6 0
BBX 5 13 0 0
BITMAP
F8
F8
F8
80
80
F0
F0
F0
80
80
F8
F8
F8
ENDCHAR
STARTCHAR 070
ENCODING 70
SWIDTH 432 0
DWIDTH 6 0
BBX 5 13 0 0
BITMAP
F8
F8
F8
80
80
F0
F0
F0
80
80
80
80
80
ENDCHAR
STARTCHAR 071
ENCODING 71
SWIDTH 432 0
DWIDTH 6 0
BBX 5 13 0 0
BITMAP
70
F8
F8
C8
80
B8
B8
B8
88
D8
F8
F8
78
ENDCHAR
STARTCHAR 072
ENCODING 72
SWIDTH 432 0
DWIDTH 6 0
BBX 5 13 0 0
BITMAP
88
88
88
88
88
F8
F8
F8
88
88
88
88
88
ENDCHAR
STARTCHAR 073
ENCODING 73
SWIDTH 288 0
DWIDTH 4 0
BBX 3 13 0 0
BITMAP
E0
E0
E0
40
40
40
40
40
40
40
E0
E0
E0
ENDCHAR
STARTCHAR 074
ENCODING 74
SWIDTH 432 0
DWIDTH 6 0
BBX 5 13 0 0
BITMAP
08
08
08
08
08
08
08
08
88
D8
F8
F8
70
ENDCHAR
STARTCHAR 075
ENCODING 75
SWIDTH 432 0
DWIDTH 6 0
BBX 5 13 0 0
BITMAP
88
88
98
90
B0
E0
E0
E0
B0
90
98
88
88
ENDCHAR
STARTCHAR 076
ENCODING 76
SWIDTH 432 0
DWIDTH 6 0
BBX 5 13 0 0
BITMAP
80
80
80
80
80
80
80
80
80
80
F8
F8
F8
ENDCHAR
STARTCHAR 077
ENCODING 77
SWIDTH 576 0
DWIDTH 8 0
BBX 7 13 0 0
BITMAP
6C
FE
FE
92
92
92
92
92
92
92
92
92
92
ENDCHAR
STARTCHAR 078
ENCODING 78
SWIDTH 432 0
DWIDTH 6 0
BBX 5 13 0 0
BITMAP
F0
F8
F8
88
88
88
88
88
88
88
88
88
88
ENDCHAR
STARTCHAR 079
ENCODING 79
SWIDTH 432 0
DWIDTH 6 0
BBX 5 13 0 0
BITMAP
70
F8
F8
D8
88
88
88
88
88
D8
F8
F8
70
ENDCHAR
STARTCHAR 080
ENCODING 80
SWIDTH 432 0
DWIDTH 6 0
BBX 5 13 0 0
BITMAP
F0
F8
F8
88
88
88
F8
F8
F0
80
80
80
80
ENDCHAR
STARTCHAR 081
ENCODING 81
SWIDTH 432 0
DWIDTH 6 0
BBX 5 13 0 0
BITMAP
70
F8
F8
D8
88
88
88
A8
B8
F0
F8
F8
48
ENDCHAR
STARTCHAR 082
ENCODING 82
SWIDTH 432 0
DWIDTH 6 0
BBX 5 13 0 0
BITMAP
F0
F8
F8
98
88
98
F8
F8
F0
90
88
88
88
ENDCHAR
STARTCHAR 083
ENCODING 83
SWIDTH 432 0
DWIDTH 6 0
BBX 5 13 0 0
BITMAP
70
F8
F8
98
C8
E0
70
38
98
C8
F8
F8
70
ENDCHAR
STARTCHAR 084
ENCODING 84
SWIDTH 432 0
DWIDTH 6 0
BBX 5 13 0 0
BITMAP
F8
F8
F8
20
20
20
20
20
20
20
20
20
20
ENDCHAR
STARTCHAR 085
ENCODING 85
SWIDTH 432 0
DWIDTH 6 0
BBX 5 13 0 0
BITMAP
88
88
88
88
88
88
88
88
88
D8
F8
F8
70
ENDCHAR
STARTCHAR 086
ENCODING 86
SWIDTH 432 0
DWIDTH 6 0
BBX 5 13 0 0
BITMAP
88
88
88
88
88
88
88
88
D8
F8
F8
70
20
ENDCHAR
STARTCHAR 087
ENCODING 87
SWIDTH 576 0
DWIDTH 8 0
BBX 7 13 0 0
BITMAP
92
92
92
92
92
92
92
92
92
92
FE
FE
6C
ENDCHAR
STARTCHAR 088
ENCODING 88
SWIDTH 432 0
DWIDTH 6 0
BBX 5 13 0 0
BITMAP
88
88
D8
D8
70
70
20
70
70
D8
D8
88
88
ENDCHAR
STARTCHAR 089
ENCODING 89
SWIDTH 432 0
DWIDTH 6 0
BBX 5 13 0 0
BITMAP
88
88
88
88
88
F8
70
70
20
20
20
20
20
ENDCHAR
STARTCHAR 090
ENCODING 90
SWIDTH 504 0
DWIDTH 7 0
BBX 6 13 0 0
BITMAP
FC
FC
FC
04
0C
18
30
60
C0
80
FC
FC
FC
ENDCHAR
STARTCHAR 091
ENCODING 91
SWIDTH 288 0
DWIDTH 4 0
BBX 3 10 0 0
BITMAP
E0
E0
C0
C0
C0
C0
C0
C0
E0
E0
ENDCHAR
STARTCHAR 092
ENCODING 92
SWIDTH 360 0
DWIDTH 5 0
BBX 4 13 0 0
BITMAP
C0
C0
C0
C0
E0
E0
60
70
70
30
30
30
30
ENDCHAR
STARTCHAR 093
ENCODING 93
SWIDTH 288 0
DWIDTH 4 0
BBX 3 11 0 0
BITMAP
E0
E0
60
60
60
60
60
60
60
E0
E0
ENDCHAR
STARTCHAR 094
ENCODING 94
SWIDTH 576 0
DWIDTH 8 0
BBX 7 4 0 6
BITMAP
38
7C
EE
C6
ENDCHAR
STARTCHAR 095
ENCODING 95
SWIDTH 504 0
DWIDTH 7 0
BBX 6 2 0 -1
BITMAP
FC
FC
ENDCHAR
STARTCHAR 096
ENCODING 96
SWIDTH 360 0
DWIDTH 5 0
BBX 4 3 0 7
BITMAP
C0
60
30
ENDCHAR
STARTCHAR 097
ENCODING 97
SWIDTH 432 0
DWIDTH 6 0
BBX 5 9 0 0
BITMAP
78
F8
F8
88
88
88
F8
F8
78
ENDCHAR
STARTCHAR 098
ENCODING 98
SWIDTH 432 0
DWIDTH 6 0
BBX 5 13 0 0
BITMAP
80
80
80
80
F0
F8
F8
88
88
88
F8
F8
F0
ENDCHAR
STARTCHAR 099
ENCODING 99
SWIDTH 432 0
DWIDTH 6 0
BBX 5 9 0 0
BITMAP
70
F8
F8
88
80
88
F8
F8
70
ENDCHAR
STARTCHAR 100
ENCODING 100
SWIDTH 432 0
DWIDTH 6 0
BBX 5 13 0 0
BITMAP
08
08
08
08
78
F8
F8
88
88
88
F8
F8
78
ENDCHAR
STARTCHAR 101
ENCODING 101
SWIDTH 432 0
DWIDTH 6 0
BBX 5 9 0 0
BITMAP
70
F8
F8
88
F8
80
F8
F8
70
ENDCHAR
STARTCHAR 102
ENCODING 102
SWIDTH 432 0
DWIDTH 6 0
BBX 5 13 0 0
BITMAP
30
78
78
48
40
E0
E0
E0
40
40
40
40
40
ENDCHAR
STARTCHAR 103
ENCODING 103
SWIDTH 432 0
DWIDTH 6 0
BBX 5 13 0 -4
BITMAP
78
F8
F8
88
88
88
F8
F8
78
08
78
78
70
ENDCHAR
STARTCHAR 104
ENCODING 104
SWIDTH 432 0
DWIDTH 6 0
BBX 5 13 0 0
BITMAP
80
80
80
80
F0
F8
F8
88
88
88
88
88
88
ENDCHAR
STARTCHAR 105
ENCODING 105
SWIDTH 144 0
DWIDTH 2 0
BBX 1 13 0 0
BITMAP
80
80
80
00
80
80
80
80
80
80
80
80
80
ENDCHAR
STARTCHAR 106
ENCODING 106
SWIDTH 288 0
DWIDTH 4 0
BBX 3 17 0 -4
BITMAP
20
20
20
00
20
20
20
20
20
20
20
20
20
20
E0
E0
C0
ENDCHAR
STARTCHAR 107
ENCODING 107
SWIDTH 432 0
DWIDTH 6 0
BBX 5 13 0 0
BITMAP
80
80
80
80
80
98
B8
F0
E0
E0
F0
B8
98
ENDCHAR
STARTCHAR 108
ENCODING 108
SWIDTH 144 0
DWIDTH 2 0
BBX 1 13 0 0
BITMAP
80
80
80
80
80
80
80
80
80
80
80
80
80
ENDCHAR
STARTCHAR 109
ENCODING 109
SWIDTH 720 0
DWIDTH 10 0
BBX 9 9 0 0
BITMAP
7700
FF80
FF80
8880
8880
8880
8880
8880
8880
ENDCHAR
STARTCHAR 110
ENCODING 110
SWIDTH 432 0
DWIDTH 6 0
BBX 5 9 0 0
BITMAP
F0
F8
F8
88
88
88
88
88
88
ENDCHAR
STARTCHAR 111
ENCODING 111
SWIDTH 432 0
DWIDTH 6 0
BBX 5 9 0 0
BITMAP
70
F8
F8
88
88
88
F8
F8
70
ENDCHAR
STARTCHAR 112
ENCODING 112
SWIDTH 432 0
DWIDTH 6 0
BBX 5 13 0 -4
BITMAP
F0
F8
F8
88
88
88
F8
F8
F0
80
80
80
80
ENDCHAR
STARTCHAR 113
ENCODING 113
SWIDTH 432 0
DWIDTH 6 0
BBX 5 13 0 -4
BITMAP
78
F8
F8
88
88
88
F8
F8
78
08
08
08
08
ENDCHAR
STARTCHAR 114
ENCODING 114
SWIDTH 360 0
DWIDTH 5 0
BBX 4 9 0 0
BITMAP
B0
F0
F0
C0
80
80
80
80
80
ENDCHAR
STARTCHAR 115
ENCODING 115
SWIDTH 432 0
DWIDTH 6 0
BBX 5 9 0 0
BITMAP
70
F8
F8
80
70
08
F8
F8
70
ENDCHAR
STARTCHAR 116
ENCODING 116
SWIDTH 288 0
DWIDTH 4 0
BBX 3 13 0 0
BITMAP
40
40
40
40
E0
E0
E0
40
40
40
60
60
20
ENDCHAR
STARTCHAR 117
ENCODING 117
SWIDTH 432 0
DWIDTH 6 0
BBX 5 9 0 0
BITMAP
88
88
88
88
88
88
F8
F8
70
ENDCHAR
STARTCHAR 118
ENCODING 118
SWIDTH 504 0
DWIDTH 7 0
BBX 6 9 0 0
BITMAP
84
84
84
84
CC
FC
FC
78
30
ENDCHAR
STARTCHAR 119
ENCODING 119
SWIDTH 576 0
DWIDTH 8 0
BBX 7 9 0 0
BITMAP
92
92
92
92
92
FE
FE
FE
6C
ENDCHAR
STARTCHAR 120
ENCODING 120
SWIDTH 432 0
DWIDTH 6 0
BBX 5 9 0 0
BITMAP
88
D8
D8
70
70
70
D8
D8
88
ENDCHAR
STARTCHAR 121
ENCODING 121
SWIDTH 432 0
DWIDTH 6 0
BBX 5 13 0 -4
BITMAP
88
88
88
88
88
88
F8
F8
78
08
78
78
70
ENDCHAR
STARTCHAR 122
ENCODING 122
SWIDTH 432 0
DWIDTH 6 0
BBX 5 9 0 0
BITMAP
F8
F8
F8
18
20
C0
F8
F8
F8
ENDCHAR
STARTCHAR 123
ENCODING 123
SWIDTH 432 0
DWIDTH 6 0
BBX 5 10 0 0
BITMAP
38
78
60
60
C0
C0
60
60
78
38
ENDCHAR
STARTCHAR 124
ENCODING 124
SWIDTH 216 0
DWIDTH 3 0
BBX 2 10 0 0
BITMAP
C0
C0
C0
C0
C0
C0
C0
C0
C0
C0
ENDCHAR
STARTCHAR 125
ENCODING 125
SWIDTH 432 0
DWIDTH 6 0
BBX 5 10 0 0
BITMAP
E0
F0
30
30
18
18
30
30
F0
E0
ENDCHAR
STARTCHAR 126
ENCODING 126
SWIDTH 648 0
DWIDTH 9 0
BBX 8 3 0 7
BITMAP
73
FF
CE
ENDCHAR
STARTCHAR 127
ENCODING 127
SWIDTH 72 0
DWIDTH 1 0
BBX 0 0 0 0
BITMAP
ENDCHAR
STARTCHAR 128
ENCODING 128
SWIDTH 72 0
DWIDTH 1 0
BBX 0 0 0 0
BITMAP
ENDCHAR
STARTCHAR 129
ENCODING 129
SWIDTH 72 0
DWIDTH 1 0
BBX 0 0 0 0
BITMAP
ENDCHAR
STARTCHAR 130
ENCODING 130
SWIDTH 72 0
DWIDTH 1 0
BBX 0 0 0 0
BITMAP
ENDCHAR
STARTCHAR 131
ENCODING 131
SWIDTH 72 0
DWIDTH 1 0
BBX 0 0 0 0
BITMAP
ENDCHAR
STARTCHAR 132
ENCODING 132
SWIDTH 72 0
DWIDTH 1 0
BBX 0 0 0 0
BITMAP
ENDCHAR
STARTCHAR 133
ENCODING 133
SWIDTH 72 0
DWIDTH 1 0
BBX 0 0 0 0
BITMAP
ENDCHAR
STARTCHAR 134
ENCODING 134
SWIDTH 72 0
DWIDTH 1 0
BBX 0 0 0 0
BITMAP
ENDCHAR
STARTCHAR 135
ENCODING 135
SWIDTH 72 0
DWIDTH 1 0
BBX 0 0 0 0
BITMAP
ENDCHAR
STARTCHAR 136
ENCODING 136
SWIDTH 72 0
DWIDTH 1 0
BBX 0 0 0 0
BITMAP
ENDCHAR
STARTCHAR 137
ENCODING 137
SWIDTH 72 0
DWIDTH 1 0
BBX 0 0 0 0
BITMAP
ENDCHAR
STARTCHAR 138
ENCODING 138
SWIDTH 72 0
DWIDTH 1 0
BBX 0 0 0 0
BITMAP
ENDCHAR
STARTCHAR 139
ENCODING 139
SWIDTH 72 0
DWIDTH 1 0
BBX 0 0 0 0
BITMAP
ENDCHAR
STARTCHAR 140
ENCODING 140
SWIDTH 72 0
DWIDTH 1 0
BBX 0 0 0 0
BITMAP
ENDCHAR
STARTCHAR 141
ENCODING 141
SWIDTH 72 0
DWIDTH 1 0
BBX 0 0 0 0
BITMAP
ENDCHAR
STARTCHAR 142
ENCODING 142
SWIDTH 72 0
DWIDTH 1 0
BBX 0 0 0 0
BITMAP
ENDCHAR
STARTCHAR 143
ENCODING 143
SWIDTH 72 0
DWIDTH 1 0
BBX 0 0 0 0
BITMAP
ENDCHAR
STARTCHAR 144
ENCODING 144
SWIDTH 72 0
DWIDTH 1 0
BBX 0 0 0 0
BITMAP
ENDCHAR
STARTCHAR 145
ENCODING 145
SWIDTH 72 0
DWIDTH 1 0
BBX 0 0 0 0
BITMAP
ENDCHAR
STARTCHAR 146
ENCODING 146
SWIDTH 72 0
DWIDTH 1 0
BBX 0 0 0 0
BITMAP
ENDCHAR
STARTCHAR 147
ENCODING 147
SWIDTH 72 0
DWIDTH 1 0
BBX 0 0 0 0
BITMAP
ENDCHAR
STARTCHAR 148
ENCODING 148
SWIDTH 72 0
DWIDTH 1 0
BBX 0 0 0 0
BITMAP
ENDCHAR
STARTCHAR 149
ENCODING 149
SWIDTH 72 0
DWIDTH 1 0
BBX 0 0 0 0
BITMAP
ENDCHAR
STARTCHAR 150
ENCODING 150
SWIDTH 72 0
DWIDTH 1 0
BBX 0 0 0 0
BITMAP
ENDCHAR
STARTCHAR 151
ENCODING 151
SWIDTH 72 0
DWIDTH 1 0
BBX 0 0 0 0
BITMAP
ENDCHAR
STARTCHAR 152
ENCODING 152
SWIDTH 72 0
DWIDTH 1 0
BBX 0 0 0 0
BITMAP
ENDCHAR
STARTCHAR 153
ENCODING 153
SWIDTH 72 0
DWIDTH 1 0
BBX 0 0 0 0
BITMAP
ENDCHAR
STARTCHAR 154
ENCODING 154
SWIDTH 72 0
DWIDTH 1 0
BBX 0 0 0 0
BITMAP
ENDCHAR
STARTCHAR 155
ENCODING 155
SWIDTH 72 0
DWIDTH 1 0
BBX 0 0 0 0
BITMAP
ENDCHAR
STARTCHAR 156
ENCODING 156
SWIDTH 72 0
DWIDTH 1 0
BBX 0 0 0 0
BITMAP
ENDCHAR
STARTCHAR 157
ENCODING 157
SWIDTH 72 0
DWIDTH 1 0
BBX 0 0 0 0
BITMAP
ENDCHAR
STARTCHAR 158
ENCODING 158
SWIDTH 72 0
DWIDTH 1 0
BBX 0 0 0 0
BITMAP
ENDCHAR
STARTCHAR 159
ENCODING 159
SWIDTH 72 0
DWIDTH 1 0
BBX 0 0 0 0
BITMAP
ENDCHAR
STARTCHAR 160
ENCODING 160
SWIDTH 648 0
DWIDTH 9 0
BBX 0 0 0 0
BITMAP
ENDCHAR
STARTCHAR 161
ENCODING 161
SWIDTH 216 0
DWIDTH 3 0
BBX 2 10 0 0
BITMAP
C0
C0
00
C0
C0
C0
C0
C0
C0
C0
ENDCHAR
STARTCHAR 162
ENCODING 162
SWIDTH 576 0
DWIDTH 8 0
BBX 7 9 0 -1
BITMAP
18
7E
FE
D8
D8
D8
FE
7E
18
ENDCHAR
STARTCHAR 163
ENCODING 163
SWIDTH 504 0
DWIDTH 7 0
BBX 6 10 0 0
BITMAP
3C
7C
60
60
F0
F0
60
E0
FC
FC
ENDCHAR
STARTCHAR 164
ENCODING 164
SWIDTH 648 0
DWIDTH 9 0
BBX 7 7 1 2
BITMAP
C6
FE
6C
44
6C
FE
C6
ENDCHAR
STARTCHAR 165
ENCODING 165
SWIDTH 504 0
DWIDTH 7 0
BBX 6 10 0 0
BITMAP
CC
CC
CC
FC
78
30
FC
30
FC
30
ENDCHAR
STARTCHAR 166
ENCODING 166
SWIDTH 648 0
DWIDTH 9 0
BBX 2 11 3 -1
BITMAP
C0
C0
C0
C0
C0
00
C0
C0
C0
C0
C0
ENDCHAR
STARTCHAR 167
ENCODING 167
SWIDTH 648 0
DWIDTH 9 0
BBX 6 11 1 -1
BITMAP
78
CC
C0
78
CC
CC
CC
78
0C
CC
78
ENDCHAR
STARTCHAR 168
ENCODING 168
SWIDTH 648 0
DWIDTH 9 0
BBX 5 2 2 11
BITMAP
D8
D8
ENDCHAR
STARTCHAR 169
ENCODING 169
SWIDTH 648 0
DWIDTH 9 0
BBX 8 11 0 0
BITMAP
3C
7E
C3
BD
A5
A1
A5
BD
C3
7E
3C
ENDCHAR
STARTCHAR 170
ENCODING 170
SWIDTH 648 0
DWIDTH 9 0
BBX 5 7 1 3
BITMAP
70
18
78
D8
78
00
F8
ENDCHAR
STARTCHAR 171
ENCODING 171
SWIDTH 648 0
DWIDTH 9 0
BBX 8 8 0 1
BITMAP
1B
36
6C
D8
D8
6C
36
1B
ENDCHAR
STARTCHAR 172
ENCODING 172
SWIDTH 648 0
DWIDTH 9 0
BBX 7 5 1 2
BITMAP
FE
FE
06
06
06
ENDCHAR
STARTCHAR 173
ENCODING 173
SWIDTH 648 0
DWIDTH 9 0
BBX 6 1 1 4
BITMAP
FC
ENDCHAR
STARTCHAR 174
ENCODING 174
SWIDTH 648 0
DWIDTH 9 0
BBX 8 11 0 0
BITMAP
3C
7E
C3
BD
A5
BD
A9
AD
C3
7E
3C
ENDCHAR
STARTCHAR 175
ENCODING 175
SWIDTH 648 0
DWIDTH 9 0
BBX 6 2 1 9
BITMAP
FC
FC
ENDCHAR
STARTCHAR 176
ENCODING 176
SWIDTH 648 0
DWIDTH 9 0
BBX 5 4 1 8
BITMAP
70
D8
D8
70
ENDCHAR
STARTCHAR 177
ENCODING 177
SWIDTH 648 0
DWIDTH 9 0
BBX 6 9 1 1
BITMAP
30
30
30
FC
30
30
30
00
FC
ENDCHAR
STARTCHAR 178
ENCODING 178
SWIDTH 648 0
DWIDTH 9 0
BBX 5 6 1 4
BITMAP
70
D8
18
30
60
F8
ENDCHAR
STARTCHAR 179
ENCODING 179
SWIDTH 648 0
DWIDTH 9 0
BBX 5 6 1 4
BITMAP
70
D8
30
18
D8
70
ENDCHAR
STARTCHAR 180
ENCODING 180
SWIDTH 648 0
DWIDTH 9 0
BBX 4 3 2 10
BITMAP
30
60
C0
ENDCHAR
STARTCHAR 181
ENCODING 181
SWIDTH 648 0
DWIDTH 9 0
BBX 7 9 1 -2
BITMAP
C6
C6
C6
C6
CE
DE
F6
C0
C0
ENDCHAR
STARTCHAR 182
ENCODING 182
SWIDTH 648 0
DWIDTH 9 0
BBX 7 10 1 0
BITMAP
7E
F6
F6
F6
76
36
36
36
36
36
ENDCHAR
STARTCHAR 183
ENCODING 183
SWIDTH 648 0
DWIDTH 9 0
BBX 3 2 3 4
BITMAP
E0
E0
ENDCHAR
STARTCHAR 184
ENCODING 184
SWIDTH 648 0
DWIDTH 9 0
BBX 6 3 1 -3
BITMAP
18
CC
78
ENDCHAR
STARTCHAR 185
ENCODING 185
SWIDTH 648 0
DWIDTH 9 0
BBX 4 6 1 4
BITMAP
60
E0
60
60
60
F0
ENDCHAR
STARTCHAR 186
ENCODING 186
SWIDTH 648 0
DWIDTH 9 0
BBX 5 7 1 3
BITMAP
70
D8
D8
D8
70
00
F8
ENDCHAR
STARTCHAR 187
ENCODING 187
SWIDTH 648 0
DWIDTH 9 0
BBX 8 8 0 1
BITMAP
D8
6C
36
1B
1B
36
6C
D8
ENDCHAR
STARTCHAR 188
ENCODING 188
SWIDTH 648 0
DWIDTH 9 0
BBX 8 11 0 0
BITMAP
60
E0
60
60
61
63
F7
0F
1B
1F
03
ENDCHAR
STARTCHAR 189
ENCODING 189
SWIDTH 648 0
DWIDTH 9 0
BBX 8 11 0 0
BITMAP
60
E0
60
60
6E
73
F3
06
0C
18
1F
ENDCHAR
STARTCHAR 190
ENCODING 190
SWIDTH 648 0
DWIDTH 9 0
BBX 8 11 0 0
BITMAP
70
98
18
30
19
9B
77
0F
1B
1F
03
ENDCHAR
STARTCHAR 191
ENCODING 191
SWIDTH 648 0
DWIDTH 9 0
BBX 7 10 1 0
BITMAP
18
18
00
18
30
60
C0
C6
C6
7C
ENDCHAR
STARTCHAR 192
ENCODING 192
SWIDTH 648 0
DWIDTH 9 0
BBX 7 14 1 0
BITMAP
60
30
18
00
10
38
38
38
6C
7C
6C
C6
C6
C6
ENDCHAR
STARTCHAR 193
ENCODING 193
SWIDTH 648 0
DWIDTH 9 0
BBX 7 14 1 0
BITMAP
0C
18
30
00
10
38
38
38
6C
7C
6C
C6
C6
C6
ENDCHAR
STARTCHAR 194
ENCODING 194
SWIDTH 648 0
DWIDTH 9 0
BBX 7 14 1 0
BITMAP
10
38
6C
00
10
38
38
38
6C
7C
6C
C6
C6
C6
ENDCHAR
STARTCHAR 195
ENCODING 195
SWIDTH 648 0
DWIDTH 9 0
BBX 7 13 1 0
BITMAP
76
DC
00
10
38
38
38
6C
7C
6C
C6
C6
C6
ENDCHAR
STARTCHAR 196
ENCODING 196
SWIDTH 648 0
DWIDTH 9 0
BBX 7 13 1 0
BITMAP
6C
6C
00
10
38
38
38
6C
7C
6C
C6
C6
C6
ENDCHAR
STARTCHAR 197
ENCODING 197
SWIDTH 648 0
DWIDTH 9 0
BBX 7 14 1 0
BITMAP
38
6C
6C
38
10
38
38
38
6C
7C
6C
C6
C6
C6
ENDCHAR
STARTCHAR 198
ENCODING 198
SWIDTH 648 0
DWIDTH 9 0
BBX 7 10 1 0
BITMAP
3E
3C
6C
6C
6E
FC
CC
CC
CC
CE
ENDCHAR
STARTCHAR 199
ENCODING 199
SWIDTH 648 0
DWIDTH 9 0
BBX 7 14 1 -4
BITMAP
3C
66
C0
C0
C0
C0
C0
C0
66
3C
18
0C
6C
38
ENDCHAR
STARTCHAR 200
ENCODING 200
SWIDTH 648 0
DWIDTH 9 0
BBX 7 14 1 0
BITMAP
60
30
18
00
FE
C0
C0
C0
F8
C0
C0
C0
C0
FE
ENDCHAR
STARTCHAR 201
ENCODING 201
SWIDTH 648 0
DWIDTH 9 0
BBX 7 14 1 0
BITMAP
0C
18
30
00
FE
C0
C0
C0
F8
C0
C0
C0
C0
FE
ENDCHAR
STARTCHAR 202
ENCODING 202
SWIDTH 648 0
DWIDTH 9 0
BBX 7 14 1 0
BITMAP
10
38
6C
00
FE
C0
C0
C0
F8
C0
C0
C0
C0
FE
ENDCHAR
STARTCHAR 203
ENCODING 203
SWIDTH 648 0
DWIDTH 9 0
BBX 7 13 1 0
BITMAP
6C
6C
00
FE
C0
C0
C0
F8
C0
C0
C0
C0
FE
ENDCHAR
STARTCHAR 204
ENCODING 204
SWIDTH 648 0
DWIDTH 9 0
BBX 6 14 1 0
BITMAP
60
30
18
00
FC
30
30
30
30
30
30
30
30
FC
ENDCHAR
STARTCHAR 205
ENCODING 205
SWIDTH 648 0
DWIDTH 9 0
BBX 6 14 1 0
BITMAP
0C
18
30
00
FC
30
30
30
30
30
30
30
30
FC
ENDCHAR
STARTCHAR 206
ENCODING 206
SWIDTH 648 0
DWIDTH 9 0
BBX 6 14 1 0
BITMAP
10
38
6C
00
FC
30
30
30
30
30
30
30
30
FC
ENDCHAR
STARTCHAR 207
ENCODING 207
SWIDTH 648 0
DWIDTH 9 0
BBX 6 13 1 0
BITMAP
6C
6C
00
FC
30
30
30
30
30
30
30
30
FC
ENDCHAR
STARTCHAR 208
ENCODING 208
SWIDTH 648 0
DWIDTH 9 0
BBX 8 10 0 0
BITMAP
7C
66
63
63
F3
63
63
63
66
7C
ENDCHAR
STARTCHAR 209
ENCODING 209
SWIDTH 648 0
DWIDTH 9 0
BBX 7 13 1 0
BITMAP
76
DC
00
C6
C6
E6
F6
DE
CE
C6
C6
C6
C6
ENDCHAR
STARTCHAR 210
ENCODING 210
SWIDTH 648 0
DWIDTH 9 0
BBX 7 14 1 0
BITMAP
60
30
18
00
7C
C6
C6
C6
C6
C6
C6
C6
C6
7C
ENDCHAR
STARTCHAR 211
ENCODING 211
SWIDTH 648 0
DWIDTH 9 0
BBX 7 14 1 0
BITMAP
0C
18
30
00
7C
C6
C6
C6
C6
C6
C6
C6
C6
7C
ENDCHAR
STARTCHAR 212
ENCODING 212
SWIDTH 648 0
DWIDTH 9 0
BBX 7 14 1 0
BITMAP
10
38
6C
00
7C
C6
C6
C6
C6
C6
C6
C6
C6
7C
ENDCHAR
STARTCHAR 213
ENCODING 213
SWIDTH 648 0
DWIDTH 9 0
BBX 7 13 1 0
BITMAP
76
DC
00
7C
C6
C6
C6
C6
C6
C6
C6
C6
7C
ENDCHAR
STARTCHAR 214
ENCODING 214
SWIDTH 648 0
DWIDTH 9 0
BBX 7 13 1 0
BITMAP
6C
6C
00
7C
C6
C6
C6
C6
C6
C6
C6
C6
7C
ENDCHAR
STARTCHAR 215
ENCODING 215
SWIDTH 648 0
DWIDTH 9 0
BBX 8 7 0 1
BITMAP
C3
66
3C
18
3C
66
C3
ENDCHAR
STARTCHAR 216
ENCODING 216
SWIDTH 648 0
DWIDTH 9 0
BBX 7 12 1 -1
BITMAP
06
7E
CE
CE
DE
DE
F6
F6
E6
E6
FC
C0
ENDCHAR
STARTCHAR 217
ENCODING 217
SWIDTH 648 0
DWIDTH 9 0
BBX 7 14 1 0
BITMAP
60
30
18
00
C6
C6
C6
C6
C6
C6
C6
C6
6C
38
ENDCHAR
STARTCHAR 218
ENCODING 218
SWIDTH 648 0
DWIDTH 9 0
BBX 7 14 1 0
BITMAP
0C
18
30
00
C6
C6
C6
C6
C6
C6
C6
C6
6C
38
ENDCHAR
STARTCHAR 219
ENCODING 219
SWIDTH 648 0
DWIDTH 9 0
BBX 7 14 1 0
BITMAP
10
38
6C
00
C6
C6
C6
C6
C6
C6
C6
C6
6C
38
ENDCHAR
STARTCHAR 220
ENCODING 220
SWIDTH 648 0
DWIDTH 9 0
BBX 7 13 1 0
BITMAP
6C
6C
00
C6
C6
C6
C6
C6
C6
C6
C6
6C
38
ENDCHAR
STARTCHAR 221
ENCODING 221
SWIDTH 648 0
DWIDTH 9 0
BBX 8 14 0 0
BITMAP
0C
18
30
00
C3
C3
66
3C
18
18
18
18
18
18
ENDCHAR
STARTCHAR 222
ENCODING 222
SWIDTH 648 0
DWIDTH 9 0
BBX 7 10 1 0
BITMAP
C0
C0
FC
C6
C6
C6
FC
C0
C0
C0
ENDCHAR
STARTCHAR 223
ENCODING 223
SWIDTH 648 0
DWIDTH 9 0
BBX 7 10 1 0
BITMAP
3C
66
66
66
EC
66
66
66
66
6C
ENDCHAR
STARTCHAR 224
ENCODING 224
SWIDTH 648 0
DWIDTH 9 0
BBX 7 11 1 0
BITMAP
60
30
18
00
7C
06
06
7E
C6
C6
7E
ENDCHAR
STARTCHAR 225
ENCODING 225
SWIDTH 648 0
DWIDTH 9 0
BBX 7 11 1 0
BITMAP
0C
18
30
00
7C
06
06
7E
C6
C6
7E
ENDCHAR
STARTCHAR 226
ENCODING 226
SWIDTH 648 0
DWIDTH 9 0
BBX 7 11 1 0
BITMAP
10
38
6C
00
7C
06
06
7E
C6
C6
7E
ENDCHAR
STARTCHAR 227
ENCODING 227
SWIDTH 648 0
DWIDTH 9 0
BBX 7 10 1 0
BITMAP
76
DC
00
7C
06
06
7E
C6
C6
7E
ENDCHAR
STARTCHAR 228
ENCODING 228
SWIDTH 648 0
DWIDTH 9 0
BBX 7 10 1 0
BITMAP
6C
6C
00
7C
06
06
7E
C6
C6
7E
ENDCHAR
STARTCHAR 229
ENCODING 229
SWIDTH 648 0
DWIDTH 9 0
BBX 7 11 1 0
BITMAP
38
6C
38
00
7C
06
06
7E
C6
C6
7E
ENDCHAR
STARTCHAR 230
ENCODING 230
SWIDTH 648 0
DWIDTH 9 0
BBX 8 7 0 0
BITMAP
76
1B
1B
7F
D8
DB
76
ENDCHAR
STARTCHAR 231
ENCODING 231
SWIDTH 648 0
DWIDTH 9 0
BBX 7 11 1 -4
BITMAP
7C
C6
C0
C0
C0
C6
7C
18
0C
6C
38
ENDCHAR
STARTCHAR 232
ENCODING 232
SWIDTH 648 0
DWIDTH 9 0
BBX 7 11 1 0
BITMAP
60
30
18
00
7C
C6
C6
FE
C0
C6
7C
ENDCHAR
STARTCHAR 233
ENCODING 233
SWIDTH 648 0
DWIDTH 9 0
BBX 7 11 1 0
BITMAP
0C
18
30
00
7C
C6
C6
FE
C0
C6
7C
ENDCHAR
STARTCHAR 234
ENCODING 234
SWIDTH 648 0
DWIDTH 9 0
BBX 7 11 1 0
BITMAP
10
38
6C
00
7C
C6
C6
FE
C0
C6
7C
ENDCHAR
STARTCHAR 235
ENCODING 235
SWIDTH 648 0
DWIDTH 9 0
BBX 7 10 1 0
BITMAP
6C
6C
00
7C
C6
C6
FE
C0
C6
7C
ENDCHAR
STARTCHAR 236
ENCODING 236
SWIDTH 648 0
DWIDTH 9 0
BBX 6 11 1 0
BITMAP
C0
60
30
00
F0
30
30
30
30
30
FC
ENDCHAR
STARTCHAR 237
ENCODING 237
SWIDTH 648 0
DWIDTH 9 0
BBX 6 11 1 0
BITMAP
0C
18
30
00
F0
30
30
30
30
30
FC
ENDCHAR
STARTCHAR 238
ENCODING 238
SWIDTH 648 0
DWIDTH 9 0
BBX 6 11 1 0
BITMAP
20
70
D8
00
F0
30
30
30
30
30
FC
ENDCHAR
STARTCHAR 239
ENCODING 239
SWIDTH 648 0
DWIDTH 9 0
BBX 6 10 1 0
BITMAP
6C
6C
00
F0
30
30
30
30
30
FC
ENDCHAR
STARTCHAR 240
ENCODING 240
SWIDTH 648 0
DWIDTH 9 0
BBX 7 11 1 0
BITMAP
6C
38
38
6C
0C
7E
C6
C6
C6
C6
7C
ENDCHAR
STARTCHAR 241
ENCODING 241
SWIDTH 648 0
DWIDTH 9 0
BBX 7 10 1 0
BITMAP
76
DC
00
DC
E6
C6
C6
C6
C6
C6
ENDCHAR
STARTCHAR 242
ENCODING 242
SWIDTH 648 0
DWIDTH 9 0
BBX 7 11 1 0
BITMAP
60
30
18
00
38
6C
C6
C6
C6
6C
38
ENDCHAR
STARTCHAR 243
ENCODING 243
SWIDTH 648 0
DWIDTH 9 0
BBX 7 11 1 0
BITMAP
0C
18
30
00
38
6C
C6
C6
C6
6C
38
ENDCHAR
STARTCHAR 244
ENCODING 244
SWIDTH 648 0
DWIDTH 9 0
BBX 7 11 1 0
BITMAP
10
38
6C
00
38
6C
C6
C6
C6
6C
38
ENDCHAR
STARTCHAR 245
ENCODING 245
SWIDTH 648 0
DWIDTH 9 0
BBX 7 10 1 0
BITMAP
76
DC
00
38
6C
C6
C6
C6
6C
38
ENDCHAR
STARTCHAR 246
ENCODING 246
SWIDTH 648 0
DWIDTH 9 0
BBX 7 10 1 0
BITMAP
6C
6C
00
38
6C
C6
C6
C6
6C
38
ENDCHAR
STARTCHAR 247
ENCODING 247
SWIDTH 648 0
DWIDTH 9 0
BBX 8 7 0 1
BITMAP
18
18
00
FF
00
18
18
ENDCHAR
STARTCHAR 248
ENCODING 248
SWIDTH 648 0
DWIDTH 9 0
BBX 8 9 0 -1
BITMAP
01
3F
66
CF
DB
F3
66
FC
80
ENDCHAR
STARTCHAR 249
ENCODING 249
SWIDTH 648 0
DWIDTH 9 0
BBX 7 11 1 0
BITMAP
60
30
18
00
C6
C6
C6
C6
C6
C6
7E
ENDCHAR
STARTCHAR 250
ENCODING 250
SWIDTH 648 0
DWIDTH 9 0
BBX 7 11 1 0
BITMAP
0C
18
30
00
C6
C6
C6
C6
C6
C6
7E
ENDCHAR
STARTCHAR 251
ENCODING 251
SWIDTH 648 0
DWIDTH 9 0
BBX 7 11 1 0
BITMAP
10
38
6C
00
C6
C6
C6
C6
C6
C6
7E
ENDCHAR
STARTCHAR 252
ENCODING 252
SWIDTH 648 0
DWIDTH 9 0
BBX 7 10 1 0
BITMAP
6C
6C
00
C6
C6
C6
C6
C6
C6
7E
ENDCHAR
STARTCHAR 253
ENCODING 253
SWIDTH 648 0
DWIDTH 9 0
BBX 7 14 1 -3
BITMAP
0C
18
30
00
C6
C6
6C
6C
6C
38
38
30
B0
60
ENDCHAR
STARTCHAR 254
ENCODING 254
SWIDTH 648 0
DWIDTH 9 0
BBX 7 11 1 -2
BITMAP
C0
C0
F8
CC
C6
C6
C6
CC
F8
C0
C0
ENDCHAR
STARTCHAR 255
ENCODING 255
SWIDTH 648 0
DWIDTH 9 0
BBX 7 13 1 -3
BITMAP
6C
6C
00
C6
C6
6C
6C
6C
38
38
30
B0
60
ENDCHAR
ENDFONT
